<svg xmlns="http://www.w3.org/2000/svg" width="966.168" height="1179.977" viewBox="0 0 966.168 1179.977">
  <path fill="#AB629C" d="M586.168 1119.977h60v60h-60z"/>
  <path fill="#975E95" d="M506.168 1119.977h60v60h-60z"/>
  <path fill="#7F5583" d="M426.168 1119.977h60v60h-60z"/>
  <path fill="#664D6E" d="M346.168 1119.977h60v60h-60z"/>
  <path fill="#483F50" d="M266.168 1119.977h60v60h-60z"/>
  <path fill="#8CC47B" d="M586.168 1040h60v60h-60z"/>
  <path fill="#75B47A" d="M506.168 1040h60v60h-60z"/>
  <path fill="#469870" d="M426.168 1040h60v60h-60z"/>
  <path fill="#20806A" d="M346.168 1040h60v60h-60z"/>
  <path fill="#1F6C6B" d="M266.168 1040h60v60h-60z"/>
  <path fill="#9D9F28" d="M586.168 960h60v60h-60z"/>
  <path fill="#898B23" d="M506.168 960h60v60h-60z"/>
  <path fill="#777922" d="M426.168 960h60v60h-60z"/>
  <path fill="#626B20" d="M346.168 960h60v60h-60z"/>
  <path fill="#505B1E" d="M266.168 960h60v60h-60z"/>
  <path fill="#CF7B43" d="M586.168 880h60v60h-60z"/>
  <path fill="#BF6B3E" d="M506.168 880h60v60h-60z"/>
  <path fill="#AD5E33" d="M426.168 880h60v60h-60z"/>
  <path fill="#9C522F" d="M346.168 880h60v60h-60z"/>
  <path fill="#8D492B" d="M266.168 880h60v60h-60z"/>
  <path fill="#ECCF49" d="M506.168 800h60v60h-60z"/>
  <path fill="#CDA544" d="M426.168 800h60v60h-60z"/>
  <path fill="#B28142" d="M346.168 800h60v60h-60z"/>
  <path fill="#945F3C" d="M266.168 800h60v60h-60z"/>
  <path fill="#CBA65B" d="M586.168 720h60v60h-60z"/>
  <path fill="#C59759" d="M506.168 720h60v60h-60z"/>
  <path fill="#BF8953" d="M426.168 720h60v60h-60z"/>
  <path fill="#B67D4F" d="M346.168 720h60v60h-60z"/>
  <path fill="#A26846" d="M266.168 720h60v60h-60z"/>
  <path fill="#C99147" d="M586.168 640h60v60h-60z"/>
  <path fill="#BA7845" d="M506.168 640h60v60h-60z"/>
  <path fill="#AD6143" d="M426.168 640h60v60h-60z"/>
  <path fill="#9C4C3D" d="M346.168 640h60v60h-60z"/>
  <path fill="#843C35" d="M266.168 640h60v60h-60z"/>
  <path fill="#B28142" d="M666.168 560h60v60h-60z"/>
  <path fill="#A36A41" d="M586.168 560h60v60h-60z"/>
  <path fill="#93573F" d="M506.168 560h60v60h-60z"/>
  <path fill="#80483D" d="M426.168 560h60v60h-60z"/>
  <path fill="#6F393A" d="M346.168 560h60v60h-60z"/>
  <path fill="#59313B" d="M266.168 560h60v60h-60z"/>
  <path fill="#D47055" d="M666.168 480h60v60h-60z"/>
  <path fill="#C1604D" d="M586.168 480h60v60h-60z"/>
  <path fill="#A84E4E" d="M506.168 480h60v60h-60z"/>
  <path fill="#904851" d="M426.168 480h60v60h-60z"/>
  <path fill="#784452" d="M346.168 480h60v60h-60z"/>
  <path fill="#553A47" d="M266.168 480h60v60h-60z"/>
  <path fill="#54DEB2" d="M906.168 400h60v60h-60z"/>
  <path fill="#4DC4B1" d="M826.168 400h60v60h-60z"/>
  <path fill="#36B4B0" d="M746.168 400h60v60h-60z"/>
  <path fill="#26A4AD" d="M666.168 400h60v60h-60z"/>
  <path fill="#1398A9" d="M586.168 400h60v60h-60z"/>
  <path fill="#0480A4" d="M506.168 400h60v60h-60z"/>
  <path fill="#046CA5" d="M426.168 400h60v60h-60z"/>
  <path fill="#046397" d="M346.168 400h60v60h-60z"/>
  <path fill="#04598F" d="M266.168 400h60v60h-60z"/>
  <path fill="#E9DBCC" d="M506.168 320h60v60h-60z"/>
  <path fill="#E3D0C4" d="M426.168 320h60v60h-60z"/>
  <path fill="#D8C0B6" d="M346.168 320h60v60h-60z"/>
  <path fill="#CCAFAA" d="M266.168 320h60v60h-60z"/>
  <path fill="#CCC9AA" d="M506.168 240h60v60h-60z"/>
  <path fill="#A9A37E" d="M426.168 240h60v60h-60z"/>
  <path fill="#958E6F" d="M346.168 240h60v60h-60z"/>
  <path fill="#817B60" d="M266.168 240h60v60h-60z"/>
  <g>
    <path fill="#A9917E" d="M506.168 160h60v60h-60z"/>
    <path fill="#9D8275" d="M426.168 160h60v60h-60z"/>
    <path fill="#8C7168" d="M346.168 160h60v60h-60z"/>
    <path fill="#7E625E" d="M266.168 160h60v60h-60z"/>
  </g>
  <g>
    <path fill="#AF873E" d="M906.168 80h60v60h-60z"/>
    <path fill="#A3743B" d="M826.168 80h60v60h-60z"/>
    <path fill="#976538" d="M746.168 80h60v60h-60z"/>
    <path fill="#885735" d="M666.168 80h60v60h-60z"/>
    <path fill="#7A4830" d="M586.168 80h60v60h-60z"/>
    <path fill="#68402F" d="M506.168 80h60v60h-60z"/>
    <path fill="#5D392A" d="M426.168 80h60v60h-60z"/>
    <path fill="#52352A" d="M346.168 79.999h60V140h-60z"/>
    <path fill="#462D24" d="M266.168 80h60v60h-60z"/>
  </g>
  <g>
    <path fill="#796A58" d="M586.168 0h60v60h-60z"/>
    <path fill="#6A5A4E" d="M506.168 0h60v60h-60z"/>
    <path fill="#443533" d="M426.168 0h60v60h-60z"/>
    <path fill="#322726" d="M346.168 0h60v60h-60z"/>
    <path fill="#241C1C" d="M266.168 0h60v60h-60z"/>
  </g>
  <g>
    <path fill="none" d="M38 1140.352h203.168v19.25H38z"/>
    <path d="M39.872 1140.351H51.65v1.508H41.64v6.708h8.892v1.508H41.64v8.841h-1.769v-18.565zm13.649 5.147h1.509v3.146h.052c.832-2.158 2.652-3.432 5.07-3.328v1.639c-2.965-.156-4.992 2.027-4.992 4.81v7.15h-1.639v-13.417zm8.684 7.15c.026 2.393 1.274 5.278 4.421 5.278 2.392 0 3.692-1.403 4.212-3.432h1.639c-.703 3.042-2.471 4.81-5.851 4.81-4.265 0-6.059-3.275-6.059-7.098 0-3.536 1.794-7.099 6.059-7.099 4.315 0 6.032 3.771 5.902 7.54H62.205zm8.686-1.377c-.078-2.47-1.613-4.784-4.265-4.784-2.679 0-4.16 2.34-4.421 4.784h8.686zm11.88-1.846c-.077-2.028-1.638-2.938-3.51-2.938-1.456 0-3.172.572-3.172 2.314 0 1.456 1.664 1.976 2.782 2.262l2.185.494c1.871.286 3.821 1.378 3.821 3.719 0 2.912-2.886 4.029-5.382 4.029-3.12 0-5.252-1.456-5.512-4.731h1.638c.13 2.21 1.768 3.354 3.952 3.354 1.533 0 3.666-.676 3.666-2.548 0-1.561-1.456-2.08-2.938-2.444l-2.106-.468c-2.131-.572-3.744-1.3-3.744-3.588 0-2.73 2.679-3.771 5.045-3.771 2.678 0 4.811 1.404 4.914 4.316h-1.639zm4.447-9.074h1.638v7.462h.053c.598-1.611 2.392-2.704 4.289-2.704 3.771 0 4.915 1.976 4.915 5.175v8.632h-1.638v-8.372c0-2.314-.755-4.057-3.406-4.057-2.601 0-4.16 1.977-4.213 4.603v7.826h-1.638v-18.565zm19.655 0h1.898l4.213 16.25h.051l4.525-16.25h2.209l4.551 16.25h.052l4.238-16.25h1.769l-5.123 18.564h-1.871l-4.707-16.614h-.052l-4.681 16.614h-1.924l-5.148-18.564zm25.792 0h1.638v2.626h-1.638v-2.626zm0 5.147h1.638v13.417h-1.638v-13.417zm4.81-5.147h1.639v18.564h-1.639v-18.564zm16.588 18.564h-1.508v-2.548h-.052c-.702 1.742-2.834 2.938-4.784 2.938-4.083 0-6.032-3.302-6.032-7.098 0-3.797 1.949-7.099 6.032-7.099 2.002 0 3.952 1.015 4.653 2.938h.053v-7.696h1.638v18.565zm-6.343-.988c3.483 0 4.706-2.938 4.706-5.72s-1.223-5.721-4.706-5.721c-3.12 0-4.395 2.938-4.395 5.721s1.275 5.72 4.395 5.72zm17.003-17.576h7.853c3.12 0 5.954 1.092 5.954 4.55 0 1.95-1.3 3.744-3.224 4.16v.053c2.392.312 3.926 2.105 3.926 4.523 0 1.769-.624 5.278-6.656 5.278h-7.853v-18.564zm1.768 8.137h6.084c2.835 0 4.187-1.404 4.187-3.146 0-2.314-1.43-3.484-4.187-3.484h-6.084v6.63zm0 8.919h6.084c2.626.025 4.889-.858 4.889-3.822 0-2.366-1.794-3.589-4.889-3.589h-6.084v7.411zm16.224-4.759c.026 2.393 1.274 5.278 4.42 5.278 2.393 0 3.692-1.403 4.213-3.432h1.638c-.702 3.042-2.47 4.81-5.851 4.81-4.264 0-6.058-3.275-6.058-7.098 0-3.536 1.794-7.099 6.058-7.099 4.316 0 6.033 3.771 5.902 7.54h-10.322zm8.684-1.377c-.078-2.47-1.612-4.784-4.265-4.784-2.678 0-4.16 2.34-4.42 4.784h8.685zm3.848-5.773h1.508v3.146h.052c.832-2.158 2.652-3.432 5.07-3.328v1.639c-2.964-.156-4.992 2.027-4.992 4.81v7.15h-1.638v-13.417zm8.19 0h1.508v3.146h.052c.832-2.158 2.652-3.432 5.07-3.328v1.639c-2.964-.156-4.992 2.027-4.992 4.81v7.15h-1.638v-13.417zm8.215-5.147h1.638v2.626h-1.638v-2.626zm0 5.147h1.638v13.417h-1.638v-13.417zm5.746 7.15c.025 2.393 1.273 5.278 4.42 5.278 2.393 0 3.691-1.403 4.212-3.432h1.638c-.701 3.042-2.47 4.81-5.85 4.81-4.264 0-6.059-3.275-6.059-7.098 0-3.536 1.795-7.099 6.059-7.099 4.316 0 6.032 3.771 5.902 7.54h-10.322zm8.684-1.377c-.078-2.47-1.611-4.784-4.264-4.784-2.678 0-4.16 2.34-4.42 4.784h8.684zm11.883-1.846c-.078-2.028-1.639-2.938-3.511-2.938-1.456 0-3.172.572-3.172 2.314 0 1.456 1.664 1.976 2.782 2.262l2.184.494c1.873.286 3.822 1.378 3.822 3.719 0 2.912-2.886 4.029-5.382 4.029-3.12 0-5.253-1.456-5.513-4.731h1.639c.13 2.21 1.768 3.354 3.952 3.354 1.534 0 3.666-.676 3.666-2.548 0-1.561-1.456-2.08-2.938-2.444l-2.105-.468c-2.133-.572-3.744-1.3-3.744-3.588 0-2.73 2.678-3.771 5.044-3.771 2.678 0 4.81 1.404 4.914 4.316h-1.638z" fill="#2E3440"/>
    <path fill="none" d="M130.626 1060.375h110.542v19.25H130.626z"/>
    <path d="M132.567 1060.374h6.423c5.59.13 8.527 3.198 8.527 9.282s-2.938 9.152-8.527 9.282h-6.423v-18.564zm1.769 17.057h3.77c5.33.025 7.645-2.236 7.645-7.774s-2.314-7.801-7.645-7.774h-3.77v15.548zm16.691-4.759c.025 2.393 1.273 5.278 4.42 5.278 2.393 0 3.692-1.403 4.213-3.432h1.638c-.702 3.042-2.47 4.81-5.851 4.81-4.264 0-6.059-3.275-6.059-7.098 0-3.536 1.795-7.099 6.059-7.099 4.316 0 6.033 3.771 5.902 7.54h-10.322zm8.685-1.378c-.078-2.47-1.612-4.784-4.265-4.784-2.678 0-4.16 2.34-4.42 4.784h8.685zm4.809 1.378c.025 2.393 1.273 5.278 4.42 5.278 2.393 0 3.692-1.403 4.213-3.432h1.638c-.702 3.042-2.47 4.81-5.851 4.81-4.264 0-6.059-3.275-6.059-7.098 0-3.536 1.795-7.099 6.059-7.099 4.316 0 6.033 3.771 5.902 7.54h-10.322zm8.685-1.378c-.078-2.47-1.612-4.784-4.265-4.784-2.678 0-4.16 2.34-4.42 4.784h8.685zm3.848-5.773h1.509v2.549h.051c.754-1.82 2.627-2.938 4.785-2.938 4.082 0 6.031 3.302 6.031 7.099 0 3.796-1.949 7.098-6.031 7.098-2.002 0-3.953-1.014-4.654-2.938h-.053v7.514h-1.638v-18.384zm6.344.989c-3.615 0-4.707 2.678-4.707 5.721 0 2.782 1.223 5.72 4.707 5.72 3.119 0 4.394-2.938 4.394-5.72s-1.274-5.721-4.394-5.721zm16.952 6.318c-.078 3.822 2.678 4.992 6.059 4.992 1.949 0 4.914-1.066 4.914-3.77 0-2.106-2.106-2.938-3.822-3.354l-4.135-1.015c-2.184-.545-4.186-1.586-4.186-4.472 0-1.82 1.17-5.226 6.396-5.226 3.666 0 6.891 1.976 6.863 5.771h-1.768c-.104-2.834-2.443-4.264-5.07-4.264-2.418 0-4.654.936-4.654 3.691 0 1.742 1.301 2.471 2.809 2.834l4.523 1.119c2.627.701 4.811 1.846 4.811 4.888 0 1.274-.52 5.304-7.098 5.304-4.395 0-7.619-1.976-7.41-6.5h1.768zm16.197-.156c.027 2.393 1.275 5.278 4.421 5.278 2.392 0 3.692-1.403 4.212-3.432h1.639c-.703 3.042-2.471 4.81-5.851 4.81-4.265 0-6.058-3.275-6.058-7.098 0-3.536 1.793-7.099 6.058-7.099 4.315 0 6.032 3.771 5.901 7.54h-10.322zm8.685-1.378c-.078-2.47-1.613-4.784-4.265-4.784-2.679 0-4.16 2.34-4.421 4.784h8.686zm3.692-1.664c.156-3.146 2.365-4.498 5.434-4.498 2.367 0 4.94.728 4.94 4.316v7.124c0 .624.312.988.962.988.182 0 .391-.052.52-.104v1.378a4.48 4.48 0 0 1-1.065.104c-1.664 0-1.924-.937-1.924-2.34h-.052c-1.145 1.742-2.314 2.729-4.889 2.729-2.471 0-4.498-1.222-4.498-3.926 0-3.771 3.666-3.9 7.202-4.316 1.353-.156 2.106-.338 2.106-1.82 0-2.209-1.586-2.756-3.51-2.756-2.029 0-3.537.937-3.589 3.12h-1.637zm8.736 1.976h-.053c-.207.39-.936.52-1.377.598-2.783.494-6.24.468-6.24 3.095 0 1.638 1.455 2.651 2.99 2.651 2.496 0 4.705-1.586 4.68-4.212v-2.132z" fill="#2E3440"/>
    <path fill="none" d="M99.855 980.375h141.313v19.25H99.855z"/>
    <path d="M101.728 980.374h1.769v17.057h10.4v1.508h-12.169v-18.565zm13.674 0h1.639V983h-1.639v-2.626zm0 5.147h1.639v13.417h-1.639v-13.417zm3.278 0h1.819l4.212 11.779h.053l4.16-11.779h1.689l-5.018 13.417h-1.742l-5.173-13.417zm13.571-5.147h1.638V983h-1.638v-2.626zm0 5.147h1.638v13.417h-1.638v-13.417zm4.759 0h1.637v2.314h.053c.598-1.611 2.393-2.704 4.29-2.704 3.771 0 4.915 1.976 4.915 5.175v8.632h-1.639v-8.372c0-2.314-.754-4.057-3.406-4.057-2.6 0-4.16 1.977-4.213 4.603v7.826h-1.637v-13.417zm25.324 12.326c-.026 4.004-1.561 6.448-5.955 6.448-2.678 0-5.33-1.196-5.564-4.057h1.639c.363 1.977 2.105 2.679 3.926 2.679 3.017 0 4.316-1.794 4.316-5.07v-1.82h-.052c-.755 1.638-2.341 2.756-4.265 2.756-4.289 0-6.059-3.067-6.059-6.89 0-3.692 2.186-6.761 6.059-6.761 1.951 0 3.615 1.222 4.265 2.704h.052v-2.314h1.639v12.325zm-1.639-5.773c0-2.626-1.223-5.564-4.316-5.564-3.119 0-4.42 2.782-4.42 5.564 0 2.704 1.404 5.33 4.42 5.33 2.834 0 4.316-2.599 4.316-5.33zm12.298-11.7h11.778v1.508h-10.01v6.708h8.893v1.508h-8.893v8.841h-1.769v-18.565zm25.661 11.856c0 3.848-2.235 7.098-6.344 7.098-4.107 0-6.344-3.25-6.344-7.098 0-3.849 2.236-7.099 6.344-7.099 4.109.001 6.344 3.251 6.344 7.099zm-11.05 0c0 2.859 1.56 5.72 4.706 5.72s4.707-2.86 4.707-5.72-1.561-5.721-4.707-5.721-4.706 2.861-4.706 5.721zm13.495-6.709h1.509v3.146h.051c.832-2.158 2.652-3.432 5.07-3.328v1.639c-2.964-.156-4.992 2.027-4.992 4.81v7.15h-1.638v-13.417zm8.683 7.151c.026 2.393 1.274 5.278 4.421 5.278 2.392 0 3.691-1.403 4.211-3.432h1.639c-.702 3.042-2.471 4.81-5.85 4.81-4.265 0-6.059-3.275-6.059-7.098 0-3.536 1.794-7.099 6.059-7.099 4.315 0 6.031 3.771 5.902 7.54h-10.323zm8.685-1.378c-.078-2.47-1.612-4.784-4.264-4.784-2.679 0-4.16 2.34-4.421 4.784h8.685zm11.882-1.846c-.077-2.028-1.638-2.938-3.511-2.938-1.455 0-3.172.572-3.172 2.314 0 1.456 1.664 1.976 2.783 2.262l2.184.494c1.872.286 3.822 1.378 3.822 3.719 0 2.912-2.887 4.029-5.383 4.029-3.119 0-5.252-1.456-5.512-4.731h1.639c.129 2.21 1.768 3.354 3.951 3.354 1.534 0 3.666-.676 3.666-2.548 0-1.561-1.455-2.08-2.938-2.444l-2.106-.468c-2.132-.572-3.744-1.3-3.744-3.588 0-2.73 2.679-3.771 5.044-3.771 2.678 0 4.811 1.404 4.914 4.316h-1.637zm7.071-3.927h2.73v1.379h-2.73v9.048c0 1.066.156 1.69 1.326 1.769.469 0 .937-.026 1.404-.078v1.404c-.494 0-.962.052-1.456.052-2.185 0-2.938-.729-2.912-3.017V986.9h-2.34v-1.379h2.34v-4.029h1.638v4.029z" fill="#2E3440"/>
    <path fill="none" d="M96.876 900.375h144.292v19.25H96.876z"/>
    <path d="M112.32 905.99c-.624-2.86-2.99-4.498-5.693-4.498-4.915 0-6.995 4.107-6.995 8.164 0 4.056 2.08 8.164 6.995 8.164 3.432 0 5.615-2.652 5.953-5.954h1.769c-.494 4.55-3.38 7.462-7.722 7.462-5.851 0-8.763-4.602-8.763-9.672s2.912-9.672 8.763-9.672c3.51 0 6.994 2.105 7.462 6.006h-1.769zm4.264 3.64c.156-3.146 2.365-4.498 5.434-4.498 2.366 0 4.94.728 4.94 4.316v7.124c0 .624.312.988.962.988.182 0 .391-.052.521-.104v1.378a4.493 4.493 0 0 1-1.066.104c-1.664 0-1.924-.937-1.924-2.34h-.052c-1.145 1.742-2.314 2.729-4.889 2.729-2.47 0-4.498-1.222-4.498-3.926 0-3.771 3.666-3.9 7.202-4.316 1.353-.156 2.106-.338 2.106-1.82 0-2.209-1.586-2.756-3.51-2.756-2.029 0-3.537.937-3.589 3.12h-1.637zm8.736 1.976h-.053c-.207.39-.936.52-1.377.598-2.783.494-6.24.468-6.24 3.095 0 1.638 1.455 2.651 2.989 2.651 2.496 0 4.706-1.586 4.681-4.212v-2.132zm4.94-11.232h1.639v18.564h-1.639v-18.564zm4.784 5.147h1.508v2.263h.078c.858-1.612 2.263-2.652 4.395-2.652 1.768 0 3.354.858 3.848 2.626.806-1.768 2.496-2.626 4.265-2.626 2.938 0 4.445 1.534 4.445 4.706v9.101h-1.638v-9.022c0-2.21-.832-3.406-3.172-3.406-2.834 0-3.64 2.34-3.64 4.836v7.593h-1.639v-9.101c.026-1.82-.729-3.328-2.809-3.328-2.834 0-3.978 2.133-4.004 4.94v7.488h-1.638v-13.418zm30.03 7.307c-.078 3.822 2.678 4.992 6.058 4.992 1.95 0 4.914-1.066 4.914-3.77 0-2.106-2.106-2.938-3.821-3.354l-4.135-1.015c-2.184-.545-4.186-1.586-4.186-4.472 0-1.82 1.17-5.226 6.396-5.226 3.666 0 6.891 1.976 6.864 5.771h-1.768c-.104-2.834-2.444-4.264-5.07-4.264-2.418 0-4.654.936-4.654 3.691 0 1.742 1.3 2.471 2.809 2.834l4.523 1.119c2.626.701 4.811 1.846 4.811 4.888 0 1.274-.521 5.304-7.099 5.304-4.394 0-7.618-1.976-7.41-6.5h1.768zm26.104 6.11h-1.508v-2.418h-.052c-.858 1.794-2.626 2.808-4.628 2.808-3.381 0-4.707-1.976-4.707-5.096v-8.711h1.639v8.736c.078 2.419.988 3.692 3.588 3.692 2.809 0 4.03-2.651 4.03-5.382v-7.047h1.638v13.418zm3.067-13.417h1.638v2.314h.053c.598-1.611 2.392-2.704 4.289-2.704 3.771 0 4.915 1.976 4.915 5.175v8.632h-1.638v-8.372c0-2.314-.755-4.057-3.406-4.057-2.601 0-4.16 1.977-4.213 4.603v7.826h-1.638v-13.417zm22.023 3.927c-.078-2.028-1.639-2.938-3.511-2.938-1.456 0-3.172.572-3.172 2.314 0 1.456 1.664 1.976 2.782 2.262l2.184.494c1.873.286 3.822 1.378 3.822 3.719 0 2.912-2.886 4.029-5.382 4.029-3.12 0-5.253-1.456-5.513-4.731h1.639c.13 2.21 1.768 3.354 3.952 3.354 1.534 0 3.666-.676 3.666-2.548 0-1.561-1.456-2.08-2.938-2.444l-2.105-.468c-2.133-.572-3.744-1.3-3.744-3.588 0-2.73 2.678-3.771 5.044-3.771 2.678 0 4.81 1.404 4.914 4.316h-1.638zm5.433 3.224c.025 2.393 1.273 5.278 4.42 5.278 2.393 0 3.691-1.403 4.212-3.432h1.638c-.701 3.042-2.47 4.81-5.85 4.81-4.264 0-6.059-3.275-6.059-7.098 0-3.536 1.795-7.099 6.059-7.099 4.316 0 6.032 3.771 5.902 7.54h-10.322zm8.684-1.378c-.078-2.47-1.611-4.784-4.264-4.784-2.678 0-4.16 2.34-4.42 4.784h8.684zm6.448-5.773h2.729v1.379h-2.729v9.048c0 1.066.156 1.69 1.326 1.769.468 0 .937-.026 1.403-.078v1.404c-.493 0-.961.052-1.455.052-2.185 0-2.938-.729-2.912-3.017V906.9h-2.34v-1.379h2.34v-4.029h1.638v4.029z" fill="#2E3440"/>
    <path fill="none" d="M76.46 820.375h164.708v19.25H76.46z"/>
    <path d="M79.164 832.828c-.078 3.822 2.678 4.992 6.059 4.992 1.949 0 4.914-1.066 4.914-3.77 0-2.106-2.106-2.938-3.822-3.354l-4.135-1.015c-2.184-.545-4.186-1.586-4.186-4.472 0-1.82 1.17-5.226 6.396-5.226 3.666 0 6.891 1.976 6.863 5.771h-1.768c-.104-2.834-2.443-4.264-5.07-4.264-2.418 0-4.654.936-4.654 3.691 0 1.742 1.301 2.471 2.809 2.834l4.523 1.119c2.627.701 4.811 1.846 4.811 4.888 0 1.274-.52 5.304-7.098 5.304-4.395 0-7.619-1.976-7.41-6.5h1.768zm13.884-7.307h1.742l3.433 11.493h.051l3.277-11.493h1.846l3.275 11.493h.053l3.432-11.493h1.742l-4.316 13.417h-1.793l-3.303-11.284h-.053l-3.275 11.284h-1.795l-4.316-13.417zm21.58 7.151c.026 2.393 1.274 5.278 4.421 5.278 2.392 0 3.691-1.403 4.211-3.432h1.639c-.702 3.042-2.471 4.81-5.85 4.81-4.265 0-6.059-3.275-6.059-7.098 0-3.536 1.794-7.099 6.059-7.099 4.315 0 6.031 3.771 5.902 7.54h-10.323zm8.685-1.378c-.078-2.47-1.612-4.784-4.264-4.784-2.679 0-4.16 2.34-4.421 4.784h8.685zm4.809 1.378c.026 2.393 1.274 5.278 4.421 5.278 2.392 0 3.691-1.403 4.211-3.432h1.639c-.702 3.042-2.471 4.81-5.85 4.81-4.265 0-6.059-3.275-6.059-7.098 0-3.536 1.794-7.099 6.059-7.099 4.315 0 6.031 3.771 5.902 7.54h-10.323zm8.685-1.378c-.078-2.47-1.612-4.784-4.264-4.784-2.679 0-4.16 2.34-4.421 4.784h8.685zm6.447-5.773h2.73v1.379h-2.73v9.048c0 1.066.156 1.69 1.326 1.769.469 0 .937-.026 1.404-.078v1.404c-.494 0-.962.052-1.456.052-2.185 0-2.938-.729-2.912-3.017V826.9h-2.34v-1.379h2.34v-4.029h1.638v4.029zm12.637-5.147h7.852c3.121 0 5.955 1.092 5.955 4.55 0 1.95-1.301 3.744-3.225 4.16v.053c2.393.312 3.926 2.105 3.926 4.523 0 1.769-.623 5.278-6.656 5.278h-7.852v-18.564zm1.767 8.138h6.084c2.834 0 4.187-1.404 4.187-3.146 0-2.314-1.431-3.484-4.187-3.484h-6.084v6.63zm0 8.919h6.084c2.627.025 4.889-.858 4.889-3.822 0-2.366-1.795-3.589-4.889-3.589h-6.084v7.411zm15.106-7.801c.156-3.146 2.366-4.498 5.435-4.498 2.366 0 4.94.728 4.94 4.316v7.124c0 .624.312.988.961.988.183 0 .391-.052.521-.104v1.378a4.504 4.504 0 0 1-1.066.104c-1.664 0-1.924-.937-1.924-2.34h-.053c-1.145 1.742-2.314 2.729-4.889 2.729-2.469 0-4.498-1.222-4.498-3.926 0-3.771 3.666-3.9 7.203-4.316 1.352-.156 2.105-.338 2.105-1.82 0-2.209-1.586-2.756-3.51-2.756-2.028 0-3.536.937-3.588 3.12h-1.637zm8.736 1.976h-.052c-.208.39-.937.52-1.378.598-2.782.494-6.24.468-6.24 3.095 0 1.638 1.456 2.651 2.99 2.651 2.496 0 4.706-1.586 4.68-4.212v-2.132zm4.889-6.085h1.637v2.314h.053c.598-1.611 2.393-2.704 4.29-2.704 3.771 0 4.915 1.976 4.915 5.175v8.632h-1.639v-8.372c0-2.314-.754-4.057-3.406-4.057-2.6 0-4.16 1.977-4.213 4.603v7.826h-1.637v-13.417zm13.832 4.109c.155-3.146 2.365-4.498 5.434-4.498 2.365 0 4.939.728 4.939 4.316v7.124c0 .624.313.988.963.988.182 0 .39-.052.52-.104v1.378a4.482 4.482 0 0 1-1.066.104c-1.664 0-1.924-.937-1.924-2.34h-.052c-1.144 1.742-2.313 2.729-4.888 2.729-2.471 0-4.498-1.222-4.498-3.926 0-3.771 3.666-3.9 7.201-4.316 1.353-.156 2.107-.338 2.107-1.82 0-2.209-1.587-2.756-3.511-2.756-2.028 0-3.536.937-3.589 3.12h-1.636zm8.736 1.976h-.053c-.208.39-.936.52-1.378.598-2.782.494-6.24.468-6.24 3.095 0 1.638 1.456 2.651 2.989 2.651 2.496 0 4.707-1.586 4.682-4.212v-2.132zm4.887-6.085h1.639v2.314h.052c.599-1.611 2.392-2.704 4.29-2.704 3.77 0 4.914 1.976 4.914 5.175v8.632h-1.638v-8.372c0-2.314-.755-4.057-3.406-4.057-2.601 0-4.16 1.977-4.212 4.603v7.826h-1.639v-13.417zm13.832 4.109c.156-3.146 2.366-4.498 5.435-4.498 2.366 0 4.94.728 4.94 4.316v7.124c0 .624.312.988.961.988.183 0 .391-.052.521-.104v1.378a4.504 4.504 0 0 1-1.066.104c-1.664 0-1.924-.937-1.924-2.34h-.053c-1.145 1.742-2.314 2.729-4.889 2.729-2.469 0-4.498-1.222-4.498-3.926 0-3.771 3.666-3.9 7.203-4.316 1.352-.156 2.105-.338 2.105-1.82 0-2.209-1.586-2.756-3.51-2.756-2.028 0-3.536.937-3.588 3.12h-1.637zm8.736 1.976h-.052c-.208.39-.937.52-1.378.598-2.782.494-6.24.468-6.24 3.095 0 1.638 1.456 2.651 2.99 2.651 2.496 0 4.706-1.586 4.68-4.212v-2.132z" fill="#2E3440"/>
    <path fill="none" d="M128.751 740.375h112.417v19.25H128.751z"/>
    <path d="M130.623 740.374h11.778v1.508H132.39v6.708h8.893v1.508h-8.893v8.841h-1.768v-18.565zm13.676 0h1.638V743h-1.638v-2.626zm0 5.147h1.638v13.417h-1.638v-13.417zm4.758 0h1.639v2.314h.051c.599-1.611 2.393-2.704 4.291-2.704 3.77 0 4.914 1.976 4.914 5.175v8.632h-1.639v-8.372c0-2.314-.754-4.057-3.406-4.057-2.6 0-4.16 1.977-4.211 4.603v7.826h-1.639v-13.417zm14.949 7.151c.025 2.393 1.273 5.278 4.42 5.278 2.393 0 3.692-1.403 4.213-3.432h1.638c-.702 3.042-2.47 4.81-5.851 4.81-4.264 0-6.059-3.275-6.059-7.098 0-3.536 1.795-7.099 6.059-7.099 4.316 0 6.033 3.771 5.902 7.54h-10.322zm8.684-1.378c-.078-2.47-1.612-4.784-4.265-4.784-2.678 0-4.16 2.34-4.42 4.784h8.685zm12.22 1.534c-.078 3.822 2.678 4.992 6.059 4.992 1.949 0 4.914-1.066 4.914-3.77 0-2.106-2.106-2.938-3.822-3.354l-4.135-1.015c-2.184-.545-4.186-1.586-4.186-4.472 0-1.82 1.17-5.226 6.396-5.226 3.666 0 6.891 1.976 6.863 5.771h-1.768c-.104-2.834-2.443-4.264-5.07-4.264-2.418 0-4.654.936-4.654 3.691 0 1.742 1.301 2.471 2.809 2.834l4.523 1.119c2.627.701 4.811 1.846 4.811 4.888 0 1.274-.52 5.304-7.098 5.304-4.395 0-7.619-1.976-7.41-6.5h1.768zm15.08-3.198c.156-3.146 2.365-4.498 5.434-4.498 2.367 0 4.94.728 4.94 4.316v7.124c0 .624.312.988.962.988.182 0 .391-.052.52-.104v1.378a4.48 4.48 0 0 1-1.065.104c-1.664 0-1.924-.937-1.924-2.34h-.052c-1.145 1.742-2.314 2.729-4.889 2.729-2.471 0-4.498-1.222-4.498-3.926 0-3.771 3.666-3.9 7.202-4.316 1.353-.156 2.106-.338 2.106-1.82 0-2.209-1.586-2.756-3.51-2.756-2.029 0-3.537.937-3.589 3.12h-1.637zm8.737 1.976h-.053c-.207.39-.936.52-1.377.598-2.783.494-6.24.468-6.24 3.095 0 1.638 1.455 2.651 2.99 2.651 2.496 0 4.705-1.586 4.68-4.212v-2.132zm4.887-6.085h1.638v2.314h.053c.598-1.611 2.392-2.704 4.289-2.704 3.771 0 4.914 1.976 4.914 5.175v8.632h-1.637v-8.372c0-2.314-.754-4.057-3.406-4.057-2.601 0-4.16 1.977-4.213 4.603v7.826h-1.638v-13.417zm25.792 13.417h-1.508v-2.548h-.053c-.701 1.742-2.834 2.938-4.783 2.938-4.083 0-6.033-3.302-6.033-7.098 0-3.797 1.95-7.099 6.033-7.099 2.002 0 3.951 1.015 4.653 2.938h.052v-7.696h1.639v18.565zm-6.343-.988c3.483 0 4.705-2.938 4.705-5.72s-1.222-5.721-4.705-5.721c-3.121 0-4.395 2.938-4.395 5.721s1.273 5.72 4.395 5.72z" fill="#2E3440"/>
    <path fill="none" d="M80.579 660.375h160.589v19.25H80.579z"/>
    <path d="M80.449 660.374h14.717v1.508h-6.475v17.057h-1.768v-17.057h-6.475v-1.508zm13.754 5.147h1.508v3.146h.053c.832-2.158 2.651-3.432 5.07-3.328v1.639c-2.965-.156-4.992 2.027-4.992 4.81v7.15h-1.639v-13.417zm19.735 6.709c0 3.848-2.236 7.098-6.344 7.098-4.108 0-6.345-3.25-6.345-7.098 0-3.849 2.236-7.099 6.345-7.099 4.107.001 6.344 3.251 6.344 7.099zm-11.051 0c0 2.859 1.561 5.72 4.707 5.72s4.706-2.86 4.706-5.72-1.56-5.721-4.706-5.721-4.707 2.861-4.707 5.721zm13.494-6.709h1.509v2.549h.052c.754-1.82 2.626-2.938 4.784-2.938 4.082 0 6.032 3.302 6.032 7.099 0 3.796-1.95 7.098-6.032 7.098-2.002 0-3.952-1.014-4.654-2.938h-.052v7.514h-1.639v-18.384zm6.345.989c-3.614 0-4.706 2.678-4.706 5.721 0 2.782 1.222 5.72 4.706 5.72 3.12 0 4.394-2.938 4.394-5.72s-1.274-5.721-4.394-5.721zm8.605-6.136h1.638V663h-1.638v-2.626zm0 5.147h1.638v13.417h-1.638v-13.417zm14.248 4.213c-.442-2.002-1.664-3.225-3.796-3.225-3.146 0-4.707 2.86-4.707 5.721 0 2.859 1.561 5.72 4.707 5.72 2.027 0 3.691-1.586 3.9-3.822h1.638c-.442 3.225-2.548 5.2-5.538 5.2-4.108 0-6.345-3.25-6.345-7.098 0-3.849 2.236-7.099 6.345-7.099 2.859 0 5.07 1.534 5.434 4.603h-1.638zm3.874-.104c.156-3.146 2.365-4.498 5.434-4.498 2.366 0 4.94.728 4.94 4.316v7.124c0 .624.312.988.962.988.182 0 .391-.052.521-.104v1.378a4.493 4.493 0 0 1-1.066.104c-1.664 0-1.924-.937-1.924-2.34h-.052c-1.145 1.742-2.314 2.729-4.889 2.729-2.47 0-4.498-1.222-4.498-3.926 0-3.771 3.666-3.9 7.202-4.316 1.353-.156 2.106-.338 2.106-1.82 0-2.209-1.586-2.756-3.51-2.756-2.029 0-3.537.937-3.589 3.12h-1.637zm8.736 1.976h-.053c-.207.39-.936.52-1.377.598-2.783.494-6.24.468-6.24 3.095 0 1.638 1.455 2.651 2.989 2.651 2.496 0 4.706-1.586 4.681-4.212v-2.132zm4.94-11.232h1.639v18.564h-1.639v-18.564zm10.452 0h1.897l4.213 16.25h.052l4.524-16.25h2.21l4.55 16.25h.053l4.238-16.25h1.768l-5.122 18.564h-1.872l-4.706-16.614h-.052l-4.681 16.614h-1.924l-5.148-18.564zm36.688 11.856c0 3.848-2.236 7.098-6.345 7.098-4.107 0-6.344-3.25-6.344-7.098 0-3.849 2.236-7.099 6.344-7.099 4.108.001 6.345 3.251 6.345 7.099zm-11.051 0c0 2.859 1.56 5.72 4.706 5.72s4.707-2.86 4.707-5.72-1.561-5.721-4.707-5.721-4.706 2.861-4.706 5.721zm25.507 0c0 3.848-2.236 7.098-6.345 7.098s-6.344-3.25-6.344-7.098c0-3.849 2.235-7.099 6.344-7.099s6.345 3.251 6.345 7.099zm-11.051 0c0 2.859 1.561 5.72 4.706 5.72 3.146 0 4.706-2.86 4.706-5.72s-1.56-5.721-4.706-5.721c-3.146.001-4.706 2.861-4.706 5.721zm25.299 6.708h-1.508v-2.548h-.053c-.701 1.742-2.834 2.938-4.784 2.938-4.082 0-6.032-3.302-6.032-7.098 0-3.797 1.95-7.099 6.032-7.099 2.003 0 3.952 1.015 4.654 2.938h.052v-7.696h1.639v18.565zm-6.345-.988c3.484 0 4.706-2.938 4.706-5.72s-1.222-5.721-4.706-5.721c-3.12 0-4.394 2.938-4.394 5.721s1.274 5.72 4.394 5.72z" fill="#2E3440"/>
    <path fill="none" d="M0 580.375h241.168v19.25H0z"/>
    <path d="M1.873 580.374h8.502c3.068 0 5.643 1.481 5.643 4.836 0 2.34-1.223 4.265-3.615 4.732v.052c2.419.313 3.121 1.977 3.251 4.187.077 1.273.077 3.821.858 4.758h-1.951c-.441-.728-.441-2.106-.494-2.886-.155-2.601-.363-5.486-3.718-5.356H3.641v8.242H1.873v-18.565zm1.768 8.814h6.604c2.157 0 4.004-1.352 4.004-3.613s-1.353-3.692-4.004-3.692H3.641v7.305zm27.274 3.042c0 3.848-2.236 7.098-6.345 7.098-4.107 0-6.344-3.25-6.344-7.098 0-3.849 2.236-7.099 6.344-7.099 4.109.001 6.345 3.251 6.345 7.099zm-11.051 0c0 2.859 1.56 5.72 4.706 5.72s4.707-2.86 4.707-5.72-1.561-5.721-4.707-5.721-4.706 2.861-4.706 5.721zm13.338-2.6c.156-3.146 2.366-4.498 5.435-4.498 2.366 0 4.939.728 4.939 4.316v7.124c0 .624.313.988.963.988.182 0 .39-.052.52-.104v1.378a4.488 4.488 0 0 1-1.066.104c-1.664 0-1.924-.937-1.924-2.34h-.052c-1.144 1.742-2.313 2.729-4.888 2.729-2.471 0-4.498-1.222-4.498-3.926 0-3.771 3.666-3.9 7.201-4.316 1.353-.156 2.106-.338 2.106-1.82 0-2.209-1.586-2.756-3.51-2.756-2.028 0-3.536.937-3.589 3.12h-1.637zm8.736 1.976h-.052c-.208.39-.936.52-1.378.598-2.782.494-6.24.468-6.24 3.095 0 1.638 1.456 2.651 2.99 2.651 2.496 0 4.706-1.586 4.68-4.212v-2.132zm12.949-2.158c-.078-2.028-1.638-2.938-3.51-2.938-1.456 0-3.172.572-3.172 2.314 0 1.456 1.664 1.976 2.781 2.262l2.185.494c1.872.286 3.822 1.378 3.822 3.719 0 2.912-2.886 4.029-5.382 4.029-3.121 0-5.253-1.456-5.513-4.731h1.638c.131 2.21 1.769 3.354 3.952 3.354 1.534 0 3.667-.676 3.667-2.548 0-1.561-1.457-2.08-2.938-2.444l-2.106-.468c-2.132-.572-3.744-1.3-3.744-3.588 0-2.73 2.678-3.771 5.045-3.771 2.678 0 4.81 1.404 4.914 4.316h-1.639zm7.072-3.927h2.729v1.379h-2.729v9.048c0 1.066.155 1.69 1.326 1.769.467 0 .936-.026 1.403-.078v1.404c-.494 0-.962.052-1.456.052-2.184 0-2.938-.729-2.912-3.017V586.9h-2.34v-1.379h2.34v-4.029h1.639v4.029zm6.057 7.151c.026 2.393 1.274 5.278 4.421 5.278 2.392 0 3.692-1.403 4.212-3.432h1.639c-.703 3.042-2.471 4.81-5.851 4.81-4.265 0-6.059-3.275-6.059-7.098 0-3.536 1.794-7.099 6.059-7.099 4.315 0 6.032 3.771 5.902 7.54H68.016zm8.685-1.378c-.078-2.47-1.613-4.784-4.265-4.784-2.679 0-4.16 2.34-4.421 4.784h8.686zm15.652 7.644h-1.508v-2.548h-.052c-.702 1.742-2.834 2.938-4.784 2.938-4.083 0-6.032-3.302-6.032-7.098 0-3.797 1.949-7.099 6.032-7.099 2.002 0 3.952 1.015 4.653 2.938h.053v-7.696h1.638v18.565zm-6.344-.988c3.483 0 4.706-2.938 4.706-5.72s-1.223-5.721-4.706-5.721c-3.12 0-4.395 2.938-4.395 5.721s1.275 5.72 4.395 5.72zm30.576-11.96c-.624-2.86-2.99-4.498-5.694-4.498-4.914 0-6.994 4.107-6.994 8.164 0 4.056 2.08 8.164 6.994 8.164 3.432 0 5.616-2.652 5.954-5.954h1.769c-.494 4.55-3.381 7.462-7.723 7.462-5.851 0-8.763-4.602-8.763-9.672s2.912-9.672 8.763-9.672c3.51 0 6.994 2.105 7.462 6.006h-1.768zm16.432 6.24c0 3.848-2.236 7.098-6.345 7.098-4.107 0-6.344-3.25-6.344-7.098 0-3.849 2.236-7.099 6.344-7.099 4.108.001 6.345 3.251 6.345 7.099zm-11.051 0c0 2.859 1.56 5.72 4.706 5.72s4.707-2.86 4.707-5.72-1.561-5.721-4.707-5.721-4.706 2.861-4.706 5.721zm22.958-2.496c-.441-2.002-1.664-3.225-3.796-3.225-3.146 0-4.706 2.86-4.706 5.721 0 2.859 1.561 5.72 4.706 5.72 2.028 0 3.692-1.586 3.9-3.822h1.638c-.441 3.225-2.548 5.2-5.538 5.2-4.108 0-6.344-3.25-6.344-7.098 0-3.849 2.235-7.099 6.344-7.099 2.86 0 5.07 1.534 5.435 4.603h-1.639zm16.043 2.496c0 3.848-2.236 7.098-6.345 7.098s-6.344-3.25-6.344-7.098c0-3.849 2.235-7.099 6.344-7.099s6.345 3.251 6.345 7.099zm-11.051 0c0 2.859 1.561 5.72 4.706 5.72 3.146 0 4.706-2.86 4.706-5.72s-1.56-5.721-4.706-5.721c-3.145.001-4.706 2.861-4.706 5.721zm13.338-2.6c.156-3.146 2.366-4.498 5.435-4.498 2.366 0 4.94.728 4.94 4.316v7.124c0 .624.312.988.962.988.182 0 .39-.052.52-.104v1.378a4.49 4.49 0 0 1-1.065.104c-1.664 0-1.924-.937-1.924-2.34h-.053c-1.145 1.742-2.314 2.729-4.889 2.729-2.47 0-4.498-1.222-4.498-3.926 0-3.771 3.666-3.9 7.203-4.316 1.352-.156 2.105-.338 2.105-1.82 0-2.209-1.586-2.756-3.51-2.756-2.028 0-3.536.937-3.588 3.12h-1.638zm8.736 1.976h-.052c-.208.39-.937.52-1.378.598-2.782.494-6.24.468-6.24 3.095 0 1.638 1.456 2.651 2.99 2.651 2.496 0 4.706-1.586 4.68-4.212v-2.132zm12.454-11.232h7.853c3.12 0 5.954 1.092 5.954 4.55 0 1.95-1.3 3.744-3.224 4.16v.053c2.392.312 3.926 2.105 3.926 4.523 0 1.769-.624 5.278-6.656 5.278h-7.853v-18.564zm1.769 8.138h6.084c2.834 0 4.186-1.404 4.186-3.146 0-2.314-1.43-3.484-4.186-3.484h-6.084v6.63zm0 8.919h6.084c2.626.025 4.888-.858 4.888-3.822 0-2.366-1.794-3.589-4.888-3.589h-6.084v7.411zm16.223-4.759c.026 2.393 1.274 5.278 4.421 5.278 2.392 0 3.692-1.403 4.212-3.432h1.639c-.703 3.042-2.471 4.81-5.851 4.81-4.265 0-6.059-3.275-6.059-7.098 0-3.536 1.794-7.099 6.059-7.099 4.315 0 6.032 3.771 5.902 7.54h-10.323zm8.685-1.378c-.078-2.47-1.613-4.784-4.265-4.784-2.679 0-4.16 2.34-4.421 4.784h8.686zm3.692-1.664c.156-3.146 2.365-4.498 5.434-4.498 2.366 0 4.94.728 4.94 4.316v7.124c0 .624.312.988.962.988.182 0 .391-.052.521-.104v1.378a4.493 4.493 0 0 1-1.066.104c-1.664 0-1.924-.937-1.924-2.34h-.052c-1.145 1.742-2.314 2.729-4.889 2.729-2.47 0-4.498-1.222-4.498-3.926 0-3.771 3.666-3.9 7.202-4.316 1.353-.156 2.106-.338 2.106-1.82 0-2.209-1.586-2.756-3.51-2.756-2.029 0-3.537.937-3.589 3.12h-1.637zm8.736 1.976h-.053c-.207.39-.936.52-1.377.598-2.783.494-6.24.468-6.24 3.095 0 1.638 1.455 2.651 2.989 2.651 2.496 0 4.706-1.586 4.681-4.212v-2.132zm4.888-6.085h1.638v2.314h.053c.598-1.611 2.392-2.704 4.289-2.704 3.771 0 4.915 1.976 4.915 5.175v8.632h-1.638v-8.372c0-2.314-.755-4.057-3.406-4.057-2.601 0-4.16 1.977-4.213 4.603v7.826h-1.638v-13.417z" fill="#2E3440"/>
    <path fill="none" d="M126 500.375h115.168v19.25H126z"/>
    <path d="M127.872 500.374h1.769v8.06h11.023v-8.06h1.769v18.564h-1.769v-8.996h-11.023v8.996h-1.769v-18.564zm30.004 11.856c0 3.848-2.235 7.098-6.344 7.098s-6.345-3.25-6.345-7.098c0-3.849 2.236-7.099 6.345-7.099s6.344 3.251 6.344 7.099zm-11.05 0c0 2.859 1.56 5.72 4.706 5.72 3.146 0 4.706-2.86 4.706-5.72s-1.561-5.721-4.706-5.721c-3.146.001-4.706 2.861-4.706 5.721zm16.094-6.709h2.73v1.379h-2.73v9.048c0 1.066.156 1.69 1.326 1.769.468 0 .936-.026 1.404-.078v1.404c-.494 0-.963.052-1.457.052-2.184 0-2.938-.729-2.912-3.017V506.9h-2.34v-1.379h2.34v-4.029h1.639v4.029zm12.636-5.147h11.778v1.508h-10.01v6.708h8.892v1.508h-8.892v8.841h-1.769v-18.565zm13.675 0h1.638v18.564h-1.638v-18.564zm4.628 9.256c.156-3.146 2.366-4.498 5.435-4.498 2.366 0 4.94.728 4.94 4.316v7.124c0 .624.312.988.962.988.182 0 .39-.052.52-.104v1.378a4.49 4.49 0 0 1-1.065.104c-1.664 0-1.924-.937-1.924-2.34h-.053c-1.145 1.742-2.314 2.729-4.889 2.729-2.47 0-4.498-1.222-4.498-3.926 0-3.771 3.666-3.9 7.203-4.316 1.352-.156 2.105-.338 2.105-1.82 0-2.209-1.586-2.756-3.51-2.756-2.028 0-3.536.937-3.588 3.12h-1.638zm8.737 1.976h-.052c-.208.39-.937.52-1.378.598-2.782.494-6.24.468-6.24 3.095 0 1.638 1.456 2.651 2.99 2.651 2.496 0 4.706-1.586 4.68-4.212v-2.132zm4.914-6.085h1.508v2.263h.078c.858-1.612 2.262-2.652 4.395-2.652 1.768 0 3.354.858 3.848 2.626.807-1.768 2.496-2.626 4.265-2.626 2.938 0 4.446 1.534 4.446 4.706v9.101h-1.639v-9.022c0-2.21-.832-3.406-3.172-3.406-2.834 0-3.641 2.34-3.641 4.836v7.593h-1.638v-9.101c.026-1.82-.728-3.328-2.808-3.328-2.834 0-3.979 2.133-4.004 4.94v7.488h-1.639v-13.418zm22.619 7.151c.026 2.393 1.274 5.278 4.421 5.278 2.392 0 3.692-1.403 4.212-3.432h1.639c-.703 3.042-2.471 4.81-5.851 4.81-4.265 0-6.059-3.275-6.059-7.098 0-3.536 1.794-7.099 6.059-7.099 4.315 0 6.032 3.771 5.902 7.54h-10.323zm8.685-1.378c-.078-2.47-1.613-4.784-4.265-4.784-2.679 0-4.16 2.34-4.421 4.784h8.686z" fill="#2E3440"/>
    <path fill="none" d="M109.501 420.375h131.667v19.25H109.501z"/>
    <path d="M124.945 425.99c-.623-2.86-2.99-4.498-5.693-4.498-4.914 0-6.994 4.107-6.994 8.164 0 4.056 2.08 8.164 6.994 8.164 3.432 0 5.615-2.652 5.953-5.954h1.769c-.494 4.55-3.38 7.462-7.722 7.462-5.852 0-8.764-4.602-8.764-9.672s2.912-9.672 8.764-9.672c3.51 0 6.994 2.105 7.461 6.006h-1.768zm4.446-5.616h1.639v18.564h-1.639v-18.564zm5.746 12.298c.025 2.393 1.273 5.278 4.42 5.278 2.393 0 3.692-1.403 4.213-3.432h1.638c-.702 3.042-2.47 4.81-5.851 4.81-4.264 0-6.059-3.275-6.059-7.098 0-3.536 1.795-7.099 6.059-7.099 4.316 0 6.033 3.771 5.902 7.54h-10.322zm8.684-1.378c-.078-2.47-1.612-4.784-4.265-4.784-2.678 0-4.16 2.34-4.42 4.784h8.685zm3.693-1.664c.155-3.146 2.365-4.498 5.434-4.498 2.365 0 4.939.728 4.939 4.316v7.124c0 .624.313.988.963.988.182 0 .39-.052.52-.104v1.378a4.482 4.482 0 0 1-1.066.104c-1.664 0-1.924-.937-1.924-2.34h-.052c-1.144 1.742-2.313 2.729-4.888 2.729-2.471 0-4.498-1.222-4.498-3.926 0-3.771 3.666-3.9 7.201-4.316 1.353-.156 2.107-.338 2.107-1.82 0-2.209-1.587-2.756-3.511-2.756-2.028 0-3.536.937-3.589 3.12h-1.636zm8.736 1.976h-.053c-.208.39-.936.52-1.378.598-2.782.494-6.24.468-6.24 3.095 0 1.638 1.456 2.651 2.989 2.651 2.496 0 4.707-1.586 4.682-4.212v-2.132zm4.913-6.085h1.509v3.146h.051c.832-2.158 2.652-3.432 5.07-3.328v1.639c-2.964-.156-4.992 2.027-4.992 4.81v7.15h-1.638v-13.417zm13.858-5.147h1.897l4.213 16.25h.052l4.524-16.25h2.21l4.55 16.25h.053l4.238-16.25h1.768l-5.122 18.564h-1.872l-4.707-16.614h-.051l-4.681 16.614h-1.925l-5.147-18.564zm24.024 9.256c.156-3.146 2.366-4.498 5.435-4.498 2.366 0 4.94.728 4.94 4.316v7.124c0 .624.312.988.961.988.183 0 .391-.052.521-.104v1.378a4.504 4.504 0 0 1-1.066.104c-1.664 0-1.924-.937-1.924-2.34h-.053c-1.145 1.742-2.314 2.729-4.889 2.729-2.469 0-4.498-1.222-4.498-3.926 0-3.771 3.666-3.9 7.203-4.316 1.352-.156 2.105-.338 2.105-1.82 0-2.209-1.586-2.756-3.51-2.756-2.028 0-3.536.937-3.588 3.12h-1.637zm8.736 1.976h-.052c-.208.39-.937.52-1.378.598-2.782.494-6.24.468-6.24 3.095 0 1.638 1.456 2.651 2.99 2.651 2.496 0 4.706-1.586 4.68-4.212v-2.132zm7.514-6.085h2.73v1.379h-2.73v9.048c0 1.066.156 1.69 1.326 1.769.469 0 .937-.026 1.404-.078v1.404c-.494 0-.962.052-1.456.052-2.185 0-2.938-.729-2.912-3.017V426.9h-2.34v-1.379h2.34v-4.029h1.638v4.029zm6.058 7.151c.026 2.393 1.274 5.278 4.421 5.278 2.392 0 3.691-1.403 4.211-3.432h1.639c-.702 3.042-2.471 4.81-5.85 4.81-4.265 0-6.059-3.275-6.059-7.098 0-3.536 1.794-7.099 6.059-7.099 4.315 0 6.031 3.771 5.902 7.54h-10.323zm8.684-1.378c-.078-2.47-1.612-4.784-4.264-4.784-2.679 0-4.16 2.34-4.421 4.784h8.685zm3.848-5.773h1.508v3.146h.053c.832-2.158 2.652-3.432 5.07-3.328v1.639c-2.965-.156-4.992 2.027-4.992 4.81v7.15h-1.639v-13.417z" fill="#2E3440"/>
    <path fill="none" d="M116.752 340.375h124.416v19.25H116.752z"/>
    <path d="M132.196 345.99c-.624-2.86-2.989-4.498-5.694-4.498-4.914 0-6.994 4.107-6.994 8.164 0 4.056 2.08 8.164 6.994 8.164 3.433 0 5.617-2.652 5.955-5.954h1.768c-.494 4.55-3.38 7.462-7.723 7.462-5.85 0-8.762-4.602-8.762-9.672s2.912-9.672 8.762-9.672c3.511 0 6.994 2.105 7.463 6.006h-1.769zm16.432 6.24c0 3.848-2.235 7.098-6.344 7.098s-6.345-3.25-6.345-7.098c0-3.849 2.236-7.099 6.345-7.099s6.344 3.251 6.344 7.099zm-11.05 0c0 2.859 1.56 5.72 4.706 5.72 3.146 0 4.706-2.86 4.706-5.72s-1.561-5.721-4.706-5.721c-3.146.001-4.706 2.861-4.706 5.721zm13.52-11.856h1.639v18.564h-1.639v-18.564zm16.589 18.564h-1.509v-2.548h-.052c-.702 1.742-2.834 2.938-4.784 2.938-4.082 0-6.032-3.302-6.032-7.098 0-3.797 1.95-7.099 6.032-7.099 2.002 0 3.952 1.015 4.654 2.938h.053v-7.696h1.638v18.565zm-6.345-.988c3.484 0 4.707-2.938 4.707-5.72s-1.223-5.721-4.707-5.721c-3.12 0-4.395 2.938-4.395 5.721s1.275 5.72 4.395 5.72zm17.836-5.122c-.078 3.822 2.678 4.992 6.059 4.992 1.949 0 4.914-1.066 4.914-3.77 0-2.106-2.106-2.938-3.822-3.354l-4.135-1.015c-2.184-.545-4.186-1.586-4.186-4.472 0-1.82 1.17-5.226 6.396-5.226 3.666 0 6.89 1.976 6.863 5.771H189.5c-.104-2.834-2.443-4.264-5.07-4.264-2.418 0-4.654.936-4.654 3.691 0 1.742 1.301 2.471 2.809 2.834l4.523 1.119c2.627.701 4.811 1.846 4.811 4.888 0 1.274-.52 5.304-7.098 5.304-4.395 0-7.619-1.976-7.41-6.5h1.767zm15.21-7.307h1.638v2.314h.053c.598-1.611 2.392-2.704 4.289-2.704 3.771 0 4.915 1.976 4.915 5.175v8.632h-1.638v-8.372c0-2.314-.755-4.057-3.406-4.057-2.601 0-4.16 1.977-4.213 4.603v7.826h-1.638v-13.417zm26 6.709c0 3.848-2.235 7.098-6.344 7.098s-6.345-3.25-6.345-7.098c0-3.849 2.236-7.099 6.345-7.099s6.344 3.251 6.344 7.099zm-11.05 0c0 2.859 1.56 5.72 4.706 5.72 3.146 0 4.706-2.86 4.706-5.72s-1.561-5.721-4.706-5.721c-3.147.001-4.706 2.861-4.706 5.721zm12.141-6.709h1.742l3.433 11.493h.051l3.277-11.493h1.846l3.275 11.493h.053l3.432-11.493h1.742l-4.316 13.417h-1.794l-3.302-11.284h-.053l-3.275 11.284h-1.794l-4.317-13.417z" fill="#2E3440"/>
    <path fill="none" d="M93.75 260.375h147.418v19.25H93.75z"/>
    <path d="M95.623 260.374h8.242c3.328 0 5.512 1.95 5.512 5.304s-2.184 5.305-5.512 5.305H97.39v7.956h-1.768v-18.565zm1.768 9.101h6.085c2.444 0 4.134-1.248 4.134-3.797 0-2.548-1.689-3.796-4.134-3.796h-6.085v7.593zm14.326-9.101h1.639V263h-1.639v-2.626zm0 5.147h1.639v13.417h-1.639v-13.417zm16.589 18.383h-1.638v-7.514h-.053c-.702 1.924-2.652 2.938-4.654 2.938-4.082 0-6.032-3.302-6.032-7.098 0-3.797 1.95-7.099 6.032-7.099 1.95 0 4.082 1.196 4.784 2.938h.052v-2.549h1.509v18.384zm-6.345-5.954c3.484 0 4.707-2.938 4.707-5.72s-1.223-5.721-4.707-5.721c-3.12 0-4.395 2.938-4.395 5.721s1.275 5.72 4.395 5.72zm20.332.988h-1.508v-2.418h-.052c-.858 1.794-2.626 2.808-4.628 2.808-3.381 0-4.707-1.976-4.707-5.096v-8.711h1.639v8.736c.078 2.419.988 3.692 3.588 3.692 2.809 0 4.03-2.651 4.03-5.382v-7.047h1.638v13.418zm2.937-9.308c.156-3.146 2.365-4.498 5.434-4.498 2.366 0 4.94.728 4.94 4.316v7.124c0 .624.312.988.962.988.182 0 .391-.052.521-.104v1.378a4.493 4.493 0 0 1-1.066.104c-1.664 0-1.924-.937-1.924-2.34h-.052c-1.145 1.742-2.314 2.729-4.889 2.729-2.47 0-4.498-1.222-4.498-3.926 0-3.771 3.666-3.9 7.202-4.316 1.353-.156 2.106-.338 2.106-1.82 0-2.209-1.586-2.756-3.51-2.756-2.029 0-3.537.937-3.589 3.12h-1.637zm8.737 1.976h-.053c-.207.39-.936.52-1.377.598-2.783.494-6.24.468-6.24 3.095 0 1.638 1.455 2.651 2.989 2.651 2.496 0 4.706-1.586 4.681-4.212v-2.132zm4.887-6.085h1.638v2.314h.053c.598-1.611 2.392-2.704 4.289-2.704 3.771 0 4.915 1.976 4.915 5.175v8.632h-1.638v-8.372c0-2.314-.755-4.057-3.406-4.057-2.601 0-4.16 1.977-4.213 4.603v7.826h-1.638v-13.417zm16.588 0h2.729v1.379h-2.729v9.048c0 1.066.156 1.69 1.326 1.769.468 0 .937-.026 1.403-.078v1.404c-.493 0-.961.052-1.455.052-2.185 0-2.938-.729-2.912-3.017V266.9h-2.34v-1.379h2.34v-4.029h1.638v4.029zm20.411-5.537c5.824 0 8.736 4.602 8.736 9.672s-2.912 9.672-8.736 9.672c-5.851 0-8.763-4.602-8.763-9.672s2.912-9.672 8.763-9.672zm0 17.836c4.888 0 6.968-4.108 6.968-8.164 0-4.057-2.08-8.164-6.968-8.164-4.914 0-6.994 4.107-6.994 8.164-.001 4.056 2.079 8.164 6.994 8.164zm11.206-17.446h1.638v18.564h-1.638v-18.564zm4.809 0h1.638V263h-1.638v-2.626zm0 5.147h1.638v13.417h-1.638v-13.417zm3.277 0h1.82l4.212 11.779h.052l4.16-11.779h1.689l-5.018 13.417h-1.742l-5.173-13.417zm14.507 7.151c.026 2.393 1.274 5.278 4.42 5.278 2.393 0 3.692-1.403 4.213-3.432h1.638c-.702 3.042-2.47 4.81-5.851 4.81-4.264 0-6.058-3.275-6.058-7.098 0-3.536 1.794-7.099 6.058-7.099 4.316 0 6.033 3.771 5.902 7.54h-10.322zm8.685-1.378c-.078-2.47-1.612-4.784-4.265-4.784-2.678 0-4.16 2.34-4.42 4.784h8.685z" fill="#2E3440"/>
    <path fill="none" d="M117.168 180.25h124v19.5h-124z"/>
    <path d="M119.041 180.25h1.768v8.061h11.025v-8.061h1.768v18.564h-1.768v-8.996h-11.025v8.996h-1.768V180.25zm17.836 9.256c.156-3.146 2.365-4.498 5.434-4.498 2.366 0 4.94.728 4.94 4.316v7.123c0 .625.312.988.962.988.182 0 .391-.051.521-.104v1.379a4.6 4.6 0 0 1-1.066.104c-1.664 0-1.924-.936-1.924-2.34h-.052c-1.145 1.742-2.314 2.729-4.889 2.729-2.47 0-4.498-1.221-4.498-3.926 0-3.77 3.666-3.9 7.202-4.316 1.353-.154 2.106-.338 2.106-1.818 0-2.211-1.586-2.758-3.51-2.758-2.029 0-3.537.938-3.589 3.121h-1.637zm8.736 1.976h-.053c-.207.389-.936.52-1.377.598-2.783.494-6.24.467-6.24 3.094 0 1.639 1.455 2.652 2.989 2.652 2.496 0 4.706-1.586 4.681-4.213v-2.131zm4.914-6.085h1.508v3.146h.052c.832-2.158 2.652-3.432 5.07-3.328v1.639c-2.964-.156-4.992 2.027-4.992 4.811v7.15h-1.638v-13.418zm19.526 13.417h-1.508v-2.549h-.052c-.702 1.742-2.835 2.938-4.784 2.938-4.082 0-6.032-3.301-6.032-7.098 0-3.795 1.95-7.098 6.032-7.098 2.002 0 3.952 1.014 4.654 2.938h.052v-7.695h1.638v18.564zm-6.344-.988c3.484 0 4.706-2.938 4.706-5.721 0-2.781-1.222-5.721-4.706-5.721-3.12 0-4.395 2.939-4.395 5.721 0 2.784 1.275 5.721 4.395 5.721zm16.951-17.576h2.601l6.422 16.275 6.396-16.275h2.601v18.564h-1.769v-16.043h-.052l-6.345 16.043h-1.664l-6.37-16.043h-.052v16.043h-1.769V180.25zm22.36 12.297c.026 2.393 1.274 5.279 4.421 5.279 2.392 0 3.692-1.404 4.212-3.432h1.639c-.703 3.041-2.471 4.809-5.851 4.809-4.265 0-6.059-3.275-6.059-7.098 0-3.535 1.794-7.098 6.059-7.098 4.315 0 6.032 3.77 5.902 7.539H203.02zm8.685-1.377c-.078-2.471-1.613-4.785-4.265-4.785-2.679 0-4.16 2.342-4.421 4.785h8.686zm6.447-5.773h2.73v1.378h-2.73v9.049c0 1.066.156 1.689 1.326 1.768.468 0 .936-.025 1.404-.078v1.404c-.494 0-.963.053-1.457.053-2.184 0-2.938-.729-2.912-3.018v-9.178h-2.34v-1.378h2.34v-4.03h1.639v4.03zm4.94 4.109c.156-3.146 2.366-4.498 5.435-4.498 2.366 0 4.94.728 4.94 4.316v7.123c0 .625.312.988.962.988.182 0 .39-.051.52-.104v1.379a4.597 4.597 0 0 1-1.065.104c-1.664 0-1.924-.936-1.924-2.34h-.053c-1.145 1.742-2.314 2.729-4.889 2.729-2.47 0-4.498-1.221-4.498-3.926 0-3.77 3.666-3.9 7.203-4.316 1.352-.154 2.105-.338 2.105-1.818 0-2.211-1.586-2.758-3.51-2.758-2.028 0-3.536.938-3.588 3.121h-1.638zm8.736 1.976h-.052c-.208.389-.937.52-1.378.598-2.782.494-6.24.467-6.24 3.094 0 1.639 1.456 2.652 2.99 2.652 2.496 0 4.706-1.586 4.68-4.213v-2.131zm4.94-11.232h1.639v18.564h-1.639V180.25z" fill="#2E3440"/>
    <path fill="none" d="M128.917 100.124h112.25v19.75h-112.25z"/>
    <path d="M131.621 112.577c-.078 3.822 2.679 4.992 6.059 4.992 1.95 0 4.914-1.066 4.914-3.77 0-2.106-2.105-2.938-3.822-3.354l-4.134-1.015c-2.185-.546-4.187-1.586-4.187-4.472 0-1.82 1.17-5.227 6.396-5.227 3.666 0 6.891 1.977 6.864 5.772h-1.769c-.104-2.834-2.443-4.264-5.07-4.264-2.418 0-4.653.936-4.653 3.691 0 1.742 1.3 2.471 2.808 2.834l4.524 1.118c2.626.702 4.81 1.847 4.81 4.889 0 1.274-.52 5.304-7.098 5.304-4.395 0-7.618-1.976-7.41-6.5h1.768zm27.248-.598c0 3.848-2.235 7.098-6.344 7.098-4.107 0-6.344-3.25-6.344-7.098 0-3.849 2.236-7.099 6.344-7.099 4.109.001 6.344 3.251 6.344 7.099zm-11.05 0c0 2.859 1.56 5.72 4.706 5.72s4.707-2.86 4.707-5.72-1.561-5.721-4.707-5.721-4.706 2.861-4.706 5.721zm18.669-5.33h-2.652v12.038h-1.639v-12.038h-2.287v-1.379h2.287v-1.222c-.025-2.313.625-3.926 3.25-3.926.469 0 .858.025 1.379.104v1.404c-.442-.078-.807-.13-1.197-.13-1.819 0-1.768 1.144-1.793 2.6v1.17h2.652v1.379zm4.159-1.378h2.729v1.379h-2.729v9.048c0 1.066.155 1.69 1.326 1.769.468 0 .937-.026 1.403-.078v1.404c-.494 0-.961.052-1.455.052-2.185 0-2.938-.729-2.912-3.017v-9.178h-2.34v-1.379h2.34v-4.029h1.638v4.029zm12.636-5.148h12.818v1.508H185.05v6.708h10.35v1.508h-10.35v7.333h11.182v1.508h-12.949v-18.565zm14.949 9.256c.156-3.146 2.366-4.498 5.435-4.498 2.366 0 4.94.729 4.94 4.316v7.124c0 .624.312.988.961.988.183 0 .391-.052.521-.104v1.378a4.504 4.504 0 0 1-1.066.104c-1.664 0-1.924-.937-1.924-2.34h-.053c-1.145 1.742-2.314 2.729-4.889 2.729-2.469 0-4.498-1.222-4.498-3.926 0-3.771 3.666-3.9 7.203-4.316 1.352-.156 2.105-.338 2.105-1.82 0-2.21-1.586-2.756-3.51-2.756-2.028 0-3.536.937-3.588 3.12h-1.637zm8.737 1.976h-.052c-.208.39-.937.52-1.378.598-2.782.494-6.24.468-6.24 3.095 0 1.638 1.456 2.651 2.99 2.651 2.496 0 4.706-1.586 4.68-4.212v-2.132zm4.914-6.084h1.508v3.146h.053c.832-2.158 2.652-3.432 5.07-3.328v1.639c-2.965-.156-4.992 2.027-4.992 4.81v7.15h-1.639v-13.417zm10.789 0h2.73v1.379h-2.73v9.048c0 1.066.156 1.69 1.326 1.769.469 0 .937-.026 1.404-.078v1.404c-.494 0-.962.052-1.456.052-2.185 0-2.938-.729-2.912-3.017v-9.178h-2.34v-1.379h2.34v-4.029h1.638v4.029zm5.07-5.148h1.639v7.462h.051c.599-1.612 2.393-2.704 4.291-2.704 3.77 0 4.914 1.977 4.914 5.175v8.632h-1.639v-8.372c0-2.314-.754-4.057-3.406-4.057-2.6 0-4.16 1.977-4.211 4.603v7.826h-1.639v-18.565z" fill="#2E3440"/>
    <path fill="none" d="M108.334 17.75h132.833v24.5H108.334z"/>
    <path d="M110.206 17.749h8.503c3.067 0 5.642 1.481 5.642 4.836 0 2.34-1.222 4.265-3.614 4.732v.052c2.418.313 3.12 1.977 3.25 4.186.078 1.274.078 3.822.858 4.759h-1.95c-.441-.728-.441-2.106-.494-2.886-.156-2.601-.363-5.486-3.719-5.356h-6.707v8.242h-1.769V17.749zm1.769 8.814h6.604c2.158 0 4.004-1.352 4.004-3.613s-1.352-3.692-4.004-3.692h-6.604v7.305zm27.273 3.042c0 3.848-2.236 7.098-6.344 7.098-4.108 0-6.344-3.25-6.344-7.098 0-3.849 2.235-7.099 6.344-7.099 4.108.001 6.344 3.251 6.344 7.099zm-11.051 0c0 2.859 1.561 5.72 4.707 5.72s4.706-2.86 4.706-5.72-1.56-5.721-4.706-5.721-4.707 2.861-4.707 5.721zm24.364 6.708h-1.508v-2.418H151c-.857 1.794-2.626 2.808-4.628 2.808-3.38 0-4.706-1.976-4.706-5.096v-8.711h1.639v8.736c.077 2.418.987 3.692 3.588 3.692 2.808 0 4.029-2.651 4.029-5.382v-7.047h1.639v13.418zm14.429-1.091c-.026 4.004-1.561 6.448-5.955 6.448-2.678 0-5.33-1.196-5.564-4.057h1.639c.363 1.977 2.105 2.678 3.926 2.678 3.017 0 4.316-1.793 4.316-5.069v-1.82h-.052c-.755 1.638-2.341 2.756-4.265 2.756-4.289 0-6.059-3.067-6.059-6.89 0-3.692 2.186-6.761 6.059-6.761 1.951 0 3.615 1.222 4.265 2.704h.052v-2.314h1.639v12.325zm-1.638-5.773c0-2.626-1.223-5.564-4.316-5.564-3.119 0-4.42 2.782-4.42 5.564 0 2.704 1.404 5.33 4.42 5.33 2.833 0 4.316-2.599 4.316-5.33zm4.732-11.7h1.637v7.462h.053c.598-1.611 2.393-2.704 4.29-2.704 3.771 0 4.915 1.976 4.915 5.175v8.632h-1.639v-8.372c0-2.314-.754-4.057-3.406-4.057-2.6 0-4.16 1.977-4.213 4.603v7.826h-1.637V17.749zm35.1 5.616c-.623-2.86-2.99-4.498-5.693-4.498-4.914 0-6.994 4.107-6.994 8.164s2.08 8.164 6.994 8.164c3.432 0 5.615-2.652 5.953-5.954h1.769c-.494 4.55-3.38 7.462-7.722 7.462-5.852 0-8.764-4.602-8.764-9.672s2.912-9.672 8.764-9.672c3.51 0 6.994 2.105 7.461 6.006h-1.768zm16.431 6.24c0 3.848-2.236 7.098-6.344 7.098-4.108 0-6.344-3.25-6.344-7.098 0-3.849 2.235-7.099 6.344-7.099 4.108.001 6.344 3.251 6.344 7.099zm-11.051 0c0 2.859 1.561 5.72 4.707 5.72s4.706-2.86 4.706-5.72-1.56-5.721-4.706-5.721-4.707 2.861-4.707 5.721zm13.338-2.6c.156-3.146 2.367-4.498 5.436-4.498 2.365 0 4.939.728 4.939 4.316v7.124c0 .624.313.988.963.988.182 0 .389-.053.52-.104v1.377a4.499 4.499 0 0 1-1.066.104c-1.664 0-1.924-.937-1.924-2.34h-.053c-1.144 1.741-2.313 2.729-4.888 2.729-2.47 0-4.498-1.222-4.498-3.926 0-3.77 3.666-3.9 7.202-4.316 1.352-.156 2.105-.338 2.105-1.82 0-2.209-1.586-2.756-3.51-2.756-2.027 0-3.535.937-3.588 3.12h-1.638zm8.737 1.976h-.051c-.209.39-.937.52-1.379.598-2.781.494-6.24.468-6.24 3.095 0 1.638 1.457 2.651 2.99 2.651 2.496 0 4.707-1.586 4.68-4.212v-2.132zm4.94-11.232h1.638v18.564h-1.638V17.749z" fill="#2E3440"/>
  </g>
</svg>
