<svg xmlns="http://www.w3.org/2000/svg" width="199.401" height="47.999" viewBox="0 0 199.401 47.999">
  <path fill="none" d="M52.276 15.979h147.125v20.649H52.276z"/>
  <path fill="#0480A4" d="M63.08 31.247v.439h-9.616v-15.71h.44v15.271h9.176zm9.569.44h-.44v-2.793h-.044c-.418 1.736-1.848 3.057-4.07 3.057-2.354 0-4.027-1.451-4.027-4.07v-7.502h.44v7.437c0 2.618 1.672 3.696 3.586 3.696 2.707 0 4.115-2.223 4.115-4.73v-6.403h.44v11.308zm2.419-11.31h.44v2.794h.044c.418-1.738 1.848-3.059 3.608-3.059 1.76-.044 3.015.968 3.389 2.641h.044c.44-1.563 1.87-2.641 3.586-2.641 2.729 0 3.586 1.694 3.586 4.137v7.437h-.44V24.25c0-2.245-.682-3.697-3.146-3.697-2.222 0-3.521 1.849-3.542 3.961v7.172h-.44v-7.261c.022-2.09-.528-3.873-3.037-3.873-2.244 0-3.652 2.223-3.652 4.731v6.402h-.44V20.377zm17.557-2.178h-.44v-2.223h.44v2.223zm0 13.488h-.44v-11.31h.44v11.31zm6.93-11.574c3.301 0 5.083 2.838 5.083 5.919 0 3.102-1.782 5.918-5.104 5.918-3.301 0-5.083-2.816-5.083-5.918-.001-3.08 1.781-5.919 5.104-5.919zm0 11.398c3.015 0 4.643-2.617 4.643-5.479 0-2.816-1.628-5.479-4.643-5.479-3.059 0-4.665 2.663-4.665 5.479 0 2.862 1.606 5.479 4.665 5.479z"/>
  <path fill="#241C1C" d="M112.908 15.977h2.2l5.436 13.774 5.412-13.774h2.2v15.71h-1.496V18.111h-.044l-5.368 13.576h-1.408l-5.392-13.576h-.044v13.576h-1.496v-15.71zm18.128 0h1.387V18.2h-1.387v-2.223zm0 4.356h1.387v11.353h-1.387V20.333zm4.027 0h1.387v1.958h.044c.506-1.364 2.024-2.288 3.631-2.288 3.19 0 4.158 1.672 4.158 4.378v7.305h-1.387v-7.084c0-1.958-.638-3.433-2.882-3.433-2.2 0-3.521 1.672-3.564 3.894v6.623h-1.387V20.333zm12.65 6.051c.021 2.025 1.078 4.467 3.74 4.467 2.024 0 3.124-1.188 3.564-2.904h1.386c-.594 2.574-2.09 4.07-4.95 4.07-3.608 0-5.127-2.771-5.127-6.006 0-2.993 1.519-6.007 5.127-6.007 3.652 0 5.104 3.19 4.994 6.38h-8.734zm7.349-1.166c-.066-2.09-1.364-4.048-3.608-4.048-2.267 0-3.521 1.98-3.74 4.048h7.348zm11.263-1.32c-.374-1.694-1.408-2.729-3.212-2.729-2.663 0-3.982 2.42-3.982 4.841 0 2.42 1.319 4.84 3.982 4.84 1.716 0 3.124-1.342 3.3-3.234h1.387c-.374 2.729-2.156 4.4-4.687 4.4-3.477 0-5.369-2.75-5.369-6.006 0-3.257 1.893-6.007 5.369-6.007 2.42 0 4.29 1.298 4.599 3.895h-1.387zm3.409-3.565h1.276v2.662h.044c.704-1.826 2.244-2.904 4.29-2.816v1.386c-2.508-.132-4.225 1.716-4.225 4.07v6.051h-1.386V20.333zm6.798 3.477c.132-2.663 2.002-3.807 4.599-3.807 2.002 0 4.181.616 4.181 3.652v6.029c0 .527.264.836.813.836.154 0 .33-.043.44-.088v1.166a3.807 3.807 0 0 1-.902.088c-1.408 0-1.628-.791-1.628-1.98h-.044c-.969 1.475-1.959 2.311-4.137 2.311-2.091 0-3.807-1.033-3.807-3.322 0-3.19 3.103-3.301 6.095-3.652 1.145-.132 1.782-.286 1.782-1.54 0-1.871-1.342-2.333-2.971-2.333-1.716 0-2.992.792-3.036 2.641h-1.385zm7.393 1.671h-.044c-.176.33-.792.441-1.166.507-2.354.418-5.281.396-5.281 2.618 0 1.387 1.232 2.244 2.531 2.244 2.112 0 3.982-1.342 3.96-3.564v-1.805zm8.536-3.981h-2.245v10.187h-1.386V21.5h-1.937v-1.166h1.937V19.3c-.022-1.958.528-3.323 2.75-3.323.396 0 .727.022 1.167.088v1.188a5.7 5.7 0 0 0-1.013-.11c-1.54 0-1.496.968-1.519 2.2v.99h2.245V21.5zm3.518-1.167h2.311V21.5h-2.311v7.658c0 .902.132 1.43 1.122 1.496a11 11 0 0 0 1.188-.066v1.188c-.418 0-.814.045-1.232.045-1.849 0-2.486-.617-2.464-2.553V21.5h-1.98v-1.166h1.98v-3.411h1.386v3.41z"/>
  <path opacity=".05" d="M36.063 4.086c5.983 4.148 9.895 11.061 9.895 18.893 0 12.69-10.284 22.978-22.98 22.978-7.832 0-14.745-3.908-18.895-9.893a23.806 23.806 0 0 0 3.862 5.074 23.412 23.412 0 0 0 15.798 6.096c12.975 0 23.491-10.518 23.491-23.487a23.41 23.41 0 0 0-6.096-15.799 23.647 23.647 0 0 0-5.075-3.862zm5.076 3.861A23.398 23.398 0 0 1 47.491 24c0 12.972-10.517 23.489-23.491 23.489a23.395 23.395 0 0 1-16.054-6.352c4.249 4.232 10.094 6.861 16.565 6.861C37.483 47.999 48 37.481 48 24.512c0-6.471-2.63-12.318-6.861-16.565z"/>
  <path opacity=".1" d="M41.14 7.947a23.412 23.412 0 0 1 6.097 15.799c0 12.972-10.517 23.487-23.491 23.487a23.415 23.415 0 0 1-15.799-6.096c4.201 3.936 9.843 6.352 16.055 6.352 12.974 0 23.49-10.518 23.49-23.489A23.4 23.4 0 0 0 41.14 7.947z"/>
  <path opacity=".2" d="M30.896 1.404c8.799 3.221 15.064 11.66 15.064 21.58 0 12.688-10.285 22.978-22.979 22.978-9.915 0-18.355-6.266-21.571-15.064 4.008 12.338 17.259 19.094 29.598 15.086a23.49 23.49 0 0 0 16.234-22.233A23.49 23.49 0 0 0 30.9 1.409l-.004-.005z"/>
  <path fill="#241C1C" d="M23.491 0c12.974 0 23.49 10.517 23.49 23.49 0 12.972-10.517 23.487-23.49 23.487C10.517 46.978 0 36.462 0 23.49 0 10.517 10.517 0 23.491 0z"/>
  <path opacity=".1" d="M39.862 6.67a23.407 23.407 0 0 1 6.097 15.799c0 12.972-10.517 23.487-23.49 23.487a23.42 23.42 0 0 1-15.8-6.096c4.268 4.383 10.224 7.117 16.821 7.117 12.974 0 23.49-10.518 23.49-23.487 0-6.6-2.734-12.552-7.118-16.82z"/>
  <path fill-opacity=".1" d="M35.718 25.79v12.664h-5.092v-4.502h-9.981v4.381h-4.847V25.79h4.948v-4.111h9.88v4.111h5.092zm5.085-12.701h-9.92v8.287h9.92v-8.287zm-20.192.004h-9.809v8.264h9.809v-8.264z"/>
  <path fill="#0480A4" d="M28.671 23.79v-4.111h-9.88v4.111h-4.948v12.543h4.846v-4.381h9.982v4.502h5.092V23.79zm.256-12.701h9.92v8.287h-9.92zm-20.079.004h9.809v8.264H8.848z"/>
</svg>
