<svg xmlns="http://www.w3.org/2000/svg" width="512.5" height="392.178" viewBox="0 0 512.5 392.178">
  <g fill="#241C1C">
    <path stroke="#241C1C" stroke-miterlimit="10" d="M196.09.5C88.068.5.5 88.067.5 196.089s87.568 195.589 195.59 195.589c108.02 0 195.588-87.567 195.588-195.589S304.11.5 196.09.5zm0 386.708c-105.553 0-191.12-85.567-191.12-191.119S90.537 4.971 196.09 4.971c105.551 0 191.118 85.566 191.118 191.118S301.641 387.208 196.09 387.208z"/>
    <path d="M300.147 10.277h67.059v6.706h-67.059zM264.94 23.13h141.383v6.706H264.94zm-31.294 14.529h219.619v6.706H233.646zM212.41 52.188h212.354v6.706H212.41zm24.029 13.971h233.59v6.706h-233.59zm-36.324 16.206H479.53v6.706H200.115zm-23.47 11.736h114.561v6.706H176.645zm-12.853 13.97h342.001v6.706H163.792zm86.897 13.412h169.883v6.706H250.689zm-50.574 12.854H479.53v6.705H200.115zm-32.168 21.794H512.5v6.706H167.947zm102.581 20.054h239.178v6.706H270.528zm88.59 93.387h134.676v6.706H359.118zm-207.62-67.059h244.208v6.706H151.498zm22.074 13.412H411.91v6.706H173.572zm251.192 0h81.029v6.706h-81.029zm-151.162 13.971h236.104v6.706H273.602zM159.74 244.984h346.053v6.706H159.74zm0 13.412h95.699v6.706H159.74zm110.788 0h100.59v6.706h-100.59zm-69.295 21.794h192.236v6.705H201.233zm-12.573 11.176h300.928v6.706H188.66zm79.633 14.53h211.236v6.706H268.293zm-70.553 15.088h234.29v6.706H197.74zm17.464 12.853h191.119v6.706H215.204zm33.53 13.971h189.721v6.706H248.734zm16.206 12.295h134.678v6.705H264.94zm35.207 13.411h67.477v6.706h-67.477zm-98.914-184.131h241.972v6.706H201.233z"/>
  </g>
</svg>
