<svg xmlns="http://www.w3.org/2000/svg" width="888" height="420" viewBox="0 0 888 420">
  <path d="M345.266 397.26v2.721h-59.433v-97.105h2.72v94.385h56.713zm59.157 2.72h-2.72v-17.273h-.272c-2.584 10.744-11.424 18.904-25.161 18.904-14.552 0-24.888-8.975-24.888-25.16v-46.377h2.72v45.969c0 16.186 10.336 22.85 22.168 22.85 16.729 0 25.433-13.736 25.433-29.24v-39.578h2.72v69.905zm14.96-69.906h2.72v17.273h.271c2.585-10.744 11.425-18.904 22.305-18.904 10.879-.271 18.631 5.984 20.944 16.32h.271c2.721-9.656 11.561-16.32 22.17-16.32 16.863 0 22.168 10.473 22.168 25.568v45.969h-2.721v-45.969c0-13.873-4.217-22.848-19.447-22.848-13.736 0-21.762 11.424-21.896 24.479v44.338h-2.721V355.1c.137-12.92-3.264-23.936-18.768-23.936-13.872 0-22.576 13.734-22.576 29.24v39.576h-2.72v-69.906zm108.529-13.463h-2.721v-13.736h2.721v13.736zm0 83.369h-2.721v-69.906h2.721v69.906zm42.838-71.537c20.4 0 31.416 17.545 31.416 36.584 0 19.176-11.016 36.584-31.553 36.584-20.4 0-31.416-17.408-31.416-36.584 0-19.039 11.016-36.584 31.553-36.584zm0 70.45c18.631 0 28.695-16.186 28.695-33.865 0-17.408-10.064-33.863-28.695-33.863-18.904 0-28.832 16.455-28.832 33.863 0 17.679 9.928 33.865 28.832 33.865z" fill="#0480A4"/>
  <g fill="#241C1C">
    <path stroke="#241C1C" stroke-miterlimit="10" d="M406.243 18.389C338.73 18.389 284 73.117 284 140.631s54.73 122.244 122.244 122.244c67.515 0 122.241-54.73 122.241-122.244S473.758 18.389 406.243 18.389zm0 241.691c-65.97 0-119.449-53.479-119.449-119.449 0-65.969 53.479-119.449 119.449-119.449s119.448 53.48 119.448 119.449c0 65.971-53.478 119.449-119.448 119.449z"/>
    <path d="M471.279 24.499h41.91v4.191h-41.91zm-22.004 8.033h88.363v4.192h-88.363zm-19.559 9.081h137.261v4.191H429.716zm-13.272 9.082h132.72v4.189h-132.72zm15.017 8.731h145.994v4.191H431.461zm-22.702 10.129h174.634v4.189H408.759zm-14.669 7.334h71.6v4.191h-71.6zm-8.033 8.73h213.751v4.192H386.057zm54.31 8.384h106.178v4.192H440.367zm-31.608 8.034h174.634v4.189H408.759zm-20.105 13.62H604v4.192H388.654zm64.114 12.534h149.484v4.191H452.768zm62.867 58.368h84.174v4.19h-84.174zm-137.261-41.913h152.628v4.189H378.374zm13.796 8.382h148.961v4.191H392.17zm156.994 0h50.645v4.191h-50.645zm-94.476 8.733h147.564v4.19H454.688zm-71.163 9.43h216.284v4.191H383.525zm0 8.382h59.811v4.19h-59.811zm69.243 0h62.867v4.19h-62.867zm-43.31 13.622h120.145v4.19H409.458zm-7.858 6.985h188.08v4.191H401.6zm49.771 9.08h132.021v4.193H451.371zm-44.097 9.431h146.431v4.191H407.274zm10.916 8.034h119.449v4.189H418.19zm20.956 8.73H557.72v4.191H439.146zm10.129 7.686h84.172v4.189h-84.172zm22.004 8.38h42.172v4.191h-42.172zm-61.821-115.082h151.231v4.191H409.458z"/>
  </g>
</svg>
