<svg xmlns="http://www.w3.org/2000/svg" width="155.193" height="47.999" viewBox="0 0 155.193 47.999">
  <path fill="none" d="M52.276 15.979h103.458v20.649H52.276z"/>
  <path fill="#0480A4" d="M63.08 30.985v.44h-9.616v-15.71h.44v15.27h9.176zm9.569.441h-.44v-2.794h-.044c-.418 1.737-1.848 3.058-4.07 3.058-2.354 0-4.027-1.452-4.027-4.07v-7.503h.44v7.438c0 2.618 1.672 3.696 3.586 3.696 2.707 0 4.115-2.223 4.115-4.731v-6.402h.44v11.308zm2.419-11.31h.44v2.794h.044c.418-1.738 1.848-3.059 3.608-3.059 1.76-.044 3.015.968 3.389 2.641h.044c.44-1.563 1.87-2.641 3.586-2.641 2.729 0 3.586 1.694 3.586 4.137v7.437h-.44v-7.437c0-2.245-.682-3.697-3.146-3.697-2.222 0-3.521 1.849-3.542 3.961v7.173h-.44v-7.261c.022-2.09-.528-3.873-3.037-3.873-2.244 0-3.652 2.223-3.652 4.73v6.403h-.44V20.116zm17.557-2.178h-.44v-2.223h.44v2.223zm0 13.488h-.44v-11.31h.44v11.31zm6.93-11.574c3.301 0 5.083 2.838 5.083 5.918 0 3.103-1.782 5.919-5.104 5.919-3.301 0-5.083-2.816-5.083-5.919-.001-3.08 1.781-5.918 5.104-5.918zm0 11.398c3.015 0 4.643-2.618 4.643-5.479 0-2.816-1.628-5.479-4.643-5.479-3.059 0-4.665 2.663-4.665 5.479 0 2.861 1.606 5.479 4.665 5.479z"/>
  <path fill="#241C1C" d="M119.289 15.715h1.496v11.333c0 3.189-1.188 4.708-4.576 4.708-3.608 0-4.4-2.641-4.379-5.368h1.496c.044 1.342-.088 4.092 3.015 4.092 2.332 0 2.948-1.188 2.948-4.07V15.715zm4.268 7.834c.132-2.663 2.002-3.807 4.599-3.807 2.002 0 4.181.616 4.181 3.652v6.029c0 .527.264.836.813.836.154 0 .33-.044.44-.088v1.166a3.855 3.855 0 0 1-.902.088c-1.408 0-1.628-.792-1.628-1.98h-.044c-.969 1.475-1.958 2.311-4.137 2.311-2.091 0-3.807-1.034-3.807-3.322 0-3.19 3.103-3.301 6.095-3.653 1.145-.131 1.782-.286 1.782-1.54 0-1.871-1.342-2.333-2.971-2.333-1.716 0-2.992.792-3.036 2.641h-1.385zm7.392 1.672h-.044c-.176.33-.792.44-1.166.507-2.354.418-5.281.396-5.281 2.617 0 1.387 1.232 2.245 2.531 2.245 2.112 0 3.982-1.343 3.96-3.564v-1.805zm2.881-5.149h1.54l3.564 9.968h.044l3.521-9.968h1.431l-4.247 11.354h-1.474l-4.379-11.354zm11.33 3.477c.132-2.663 2.002-3.807 4.599-3.807 2.002 0 4.181.616 4.181 3.652v6.029c0 .527.264.836.813.836.154 0 .33-.044.44-.088v1.166a3.855 3.855 0 0 1-.902.088c-1.408 0-1.628-.792-1.628-1.98h-.044c-.969 1.475-1.958 2.311-4.137 2.311-2.091 0-3.807-1.034-3.807-3.322 0-3.19 3.103-3.301 6.095-3.653 1.145-.131 1.782-.286 1.782-1.54 0-1.871-1.342-2.333-2.971-2.333-1.716 0-2.992.792-3.036 2.641h-1.385zm7.393 1.672h-.044c-.176.33-.792.44-1.166.507-2.354.418-5.281.396-5.281 2.617 0 1.387 1.232 2.245 2.531 2.245 2.112 0 3.982-1.343 3.96-3.564v-1.805z"/>
  <path opacity=".05" d="M36.063 4.086c5.983 4.148 9.895 11.061 9.895 18.893 0 12.69-10.284 22.978-22.98 22.978-7.832 0-14.745-3.908-18.895-9.893a23.806 23.806 0 0 0 3.862 5.074 23.412 23.412 0 0 0 15.798 6.096c12.975 0 23.491-10.518 23.491-23.487a23.41 23.41 0 0 0-6.096-15.799 23.647 23.647 0 0 0-5.075-3.862zm5.076 3.861A23.398 23.398 0 0 1 47.491 24c0 12.972-10.517 23.489-23.491 23.489a23.395 23.395 0 0 1-16.054-6.352c4.249 4.232 10.094 6.861 16.565 6.861C37.483 47.999 48 37.481 48 24.512c0-6.471-2.63-12.318-6.861-16.565z"/>
  <path opacity=".1" d="M41.14 7.947a23.412 23.412 0 0 1 6.097 15.799c0 12.972-10.517 23.487-23.491 23.487a23.415 23.415 0 0 1-15.799-6.096c4.201 3.936 9.843 6.352 16.055 6.352 12.974 0 23.49-10.518 23.49-23.489A23.4 23.4 0 0 0 41.14 7.947z"/>
  <path opacity=".2" d="M30.896 1.404c8.799 3.221 15.064 11.66 15.064 21.58 0 12.688-10.285 22.978-22.979 22.978-9.915 0-18.355-6.266-21.571-15.064 4.008 12.338 17.259 19.094 29.598 15.086a23.49 23.49 0 0 0 16.234-22.233A23.49 23.49 0 0 0 30.9 1.409l-.004-.005z"/>
  <path fill="#241C1C" d="M23.491 0c12.974 0 23.49 10.517 23.49 23.49 0 12.972-10.517 23.487-23.49 23.487C10.517 46.978 0 36.462 0 23.49 0 10.517 10.517 0 23.491 0z"/>
  <path opacity=".1" d="M39.862 6.67a23.407 23.407 0 0 1 6.097 15.799c0 12.972-10.517 23.487-23.49 23.487a23.42 23.42 0 0 1-15.8-6.096c4.268 4.383 10.224 7.117 16.821 7.117 12.974 0 23.49-10.518 23.49-23.487 0-6.6-2.734-12.552-7.118-16.82z"/>
  <path fill-opacity=".1" d="M25.445 20.45c1.454 1.601-.391 3.046-.391 3.046s3.692-1.83 2.005-4.114c-1.594-2.136-2.803-3.189 3.772-6.856 0 0-10.317 2.47-5.392 7.912m7.807 10.868s.855.674-.938 1.193c-3.406.986-14.172 1.285-17.161.035-1.072-.447.942-1.064 1.576-1.197.665-.139 1.038-.115 1.038-.115-1.189-.811-7.726 1.59-3.315 2.271 12.026 1.869 21.92-.842 18.8-2.187m-12.603-8.777s-5.477 1.244-1.939 1.701c1.498.191 4.466.148 7.244-.074 2.271-.182 4.546-.574 4.546-.574s-.805.332-1.381.709c-5.557 1.399-16.298.747-13.212-.686 2.617-1.211 4.745-1.072 4.745-1.072m9.822 5.261c5.652-2.814 3.038-5.519 1.217-5.155-.447.092-.647.166-.647.166s.161-.248.479-.357c3.615-1.215 6.384 3.589-1.163 5.491 0 0 .086-.074.112-.145M27.058 6.631s3.129 3.003-2.973 7.62c-4.887 3.703-1.112 5.815 0 8.226-2.852-2.466-4.948-4.642-3.542-6.667 2.06-2.97 7.777-4.405 6.514-9.176M21.2 35.427c5.424.334 13.757-.188 13.957-2.643 0 0-.381.928-4.488 1.67-4.631.832-10.343.738-13.732.203 0 0 .695.549 4.263.77"/>
  <path fill="#0480A4" d="M20.088 34.315c5.426.334 13.759-.188 13.958-2.643 0 0-.382.928-4.488 1.67-4.631.834-10.343.736-13.731.205-.001.001.693.546 4.261.768"/>
  <path fill="#0480A4" d="M32.134 30.196s.855.672-.938 1.191c-3.406.986-14.17 1.285-17.161.035-1.071-.447.941-1.063 1.575-1.197.665-.141 1.038-.113 1.038-.113-1.187-.812-7.725 1.588-3.314 2.268 12.026 1.873 21.921-.84 18.802-2.186m-2.779-3.509c5.651-2.815 3.038-5.521 1.216-5.155-.447.09-.646.164-.646.164s.161-.248.478-.355c3.616-1.216 6.384 3.588-1.163 5.487 0 0 .086-.072.113-.143m-9.823-5.265s-5.478 1.246-1.939 1.701c1.497.191 4.467.148 7.244-.072 2.27-.184 4.544-.576 4.544-.576s-.803.332-1.38.709c-5.555 1.403-16.297.746-13.212-.686 2.617-1.211 4.744-1.072 4.744-1.072"/>
  <path fill="#CF7B43" d="M24.335 19.339c1.454 1.601-.392 3.046-.392 3.046s3.693-1.83 2.005-4.113c-1.592-2.137-2.803-3.19 3.773-6.857 0 0-10.317 2.47-5.393 7.912"/>
  <path fill="#CF7B43" d="M25.946 5.519s3.129 3.004-2.974 7.622c-4.886 3.701-1.11 5.814 0 8.225-2.851-2.467-4.947-4.641-3.542-6.667 2.061-2.97 7.778-4.405 6.514-9.175"/>
</svg>
